# xmcd
#
# Track frame offsets:
#	150
#	23114
#	38703
#	69820
#	88170
#	105581
#	122413
#	145129
#	162221
#	178278
#	200354
#	219420
#	237205
#	250678
#
# Disc length: 3647 seconds
#
# Revision: 0
# Processed by: cddbd v1.4PL0 Copyright (c) Steve Scherf et al.
# Submitted via: EasyCDDAExtractor 4.5.0.2
#
DISCID=b50e3d0e
DTITLE=Benoît Blue Boy - Benoît Blue Boy en Amérique
DYEAR=1900
DGENRE=Blues
TTITLE0=Gare ta voiture dans l'allée
TTITLE1=Hey! Toi!
TTITLE2=Toujours demain
TTITLE3=10 1/2 à "chez nous" Aka Pachu-Gumbo
TTITLE4=T'es la seule
TTITLE5=Blues en la noche (Version latine)
TTITLE6=J'entends ton taxi qu'arrive
TTITLE7=J'suis pas l'homme qui t'faut
TTITLE8=Tu sais rien
TTITLE9=C'est moi qui tient l'volant
TTITLE10=Un sale boulot
TTITLE11=Rentrer chez moi
TTITLE12=Tous les jours
TTITLE13=Gare ta voiture dans l'allée (remixée version FM)
EXTD=
EXTT0=
EXTT1=
EXTT2=
EXTT3=
EXTT4=
EXTT5=
EXTT6=
EXTT7=
EXTT8=
EXTT9=
EXTT10=
EXTT11=
EXTT12=
EXTT13=
PLAYORDER=
